{"title":"Born of Hope (2009) WEBRip XviD - DiGrX","uid":8200270,"size":938366726,"categoryP":"video","categoryS":"movies","magnet":"?xt=urn:btih:3b35add971f915ae978211e796243c676d4cc677&amp;dn=Born+of+Hope+%282009%29+WEBRip+XviD+-+DiGrX&amp;tr=udp%3A%2F%2Ftracker.openbittorrent.com%3A80&amp;tr=udp%3A%2F%2Fopen.demonii.com%3A1337&amp;tr=udp%3A%2F%2Ftracker.coppersurfer.tk%3A6969&amp;tr=udp%3A%2F%2Fexodus.desync.com%3A6969","seeders":0,"leechers":1,"uploader":"dimigeor","files":2,"time":1361997107,"description":"Born of Hope (2009) WEBRip XviD - DiGrX\n\nI think this version has good audio correspondence.\n\n\nVideo\nID                                       : 0\nFormat                                   : MPEG-4 Visual\nFormat profile                           : Simple@L3\nFormat settings, BVOP                    : No\nFormat settings, QPel                    : No\nFormat settings, GMC                     : No warppoints\nFormat settings, Matrix                  : Default (H.263)\nCodec ID                                 : XVID\nCodec ID/Hint                            : XviD\nDuration                                 : 1h 11mn\nBit rate                                 : 1 617 Kbps\nWidth                                    : 720 pixels\nHeight                                   : 304 pixels\nDisplay aspect ratio                     : 2.35:1\nFrame rate                               : 25.000 fps\nColor space                              : YUV\nChroma subsampling                       : 4:2:0\nBit depth                                : 8 bits\nScan type                                : Progressive\nCompression mode                         : Lossy\nBits/(Pixel*Frame)                       : 0.296\nStream size                              : 826 MiB (92%)\nWriting library                          : XviD 63\n\nAudio\nID                                       : 1\nFormat                                   : MPEG Audio\nFormat version                           : Version 1\nFormat profile                           : Layer 3\nMode                                     : Joint stereo\nCodec ID                                 : 55\nCodec ID/Hint                            : MP3\nDuration                                 : 1h 11mn\nBit rate mode                            : Variable\nBit rate                                 : 122 Kbps\nChannel(s)                               : 2 channels\nSampling rate                            : 48.0 KHz\nCompression mode                         : Lossy\nStream size                              : 62.4 MiB (7%)\nAlignment                                : Aligned on interleaves\nInterleave, duration                     : 24 ms (0.60 video frame)\nInterleave, preload duration             : 221 ms","torrent":{"xt":"urn:btih:3b35add971f915ae978211e796243c676d4cc677","amp;dn":"Born+of+Hope+%282009%29+WEBRip+XviD+-+DiGrX","amp;tr":["udp%3A%2F%2Ftracker.openbittorrent.com%3A80","udp%3A%2F%2Fopen.demonii.com%3A1337","udp%3A%2F%2Ftracker.coppersurfer.tk%3A6969","udp%3A%2F%2Fexodus.desync.com%3A6969"],"infoHash":"3b35add971f915ae978211e796243c676d4cc677","infoHashBuffer":{"type":"Buffer","data":[59,53,173,217,113,249,21,174,151,130,17,231,150,36,60,103,109,76,198,119]},"announce":[],"urlList":[]}}